<svg width="640" height="360" viewBox="0 0 640 360" fill="none" xmlns="http://www.w3.org/2000/svg">
  <rect width="640" height="360" rx="32" fill="url(#bg)"/>
  <rect x="48" y="52" width="544" height="256" rx="30" fill="#FFFFFF" fill-opacity="0.92"/>
  <circle cx="520" cy="110" r="56" fill="#FFE6A7"/>
  <circle cx="110" cy="270" r="48" fill="#E2F6FF"/>
  <text x="120" y="110" fill="#19334A" font-size="28" font-family="Arial, sans-serif" font-weight="700">MEMORY</text>
  <text x="120" y="152" fill="#19334A" font-size="42" font-family="Arial, sans-serif" font-weight="800">Card</text>
  <rect x="120" y="174" width="140" height="38" rx="18" fill="#19334A"/>
  <text x="190" y="199" text-anchor="middle" fill="#FFFFFF" font-size="16" font-family="Arial, sans-serif" font-weight="700">MATCHING GAME</text>
  <rect x="310" y="80" width="80" height="80" rx="16" fill="#FFF4CF" stroke="#F1B93F" stroke-width="2"/>
  <text x="350" y="132" text-anchor="middle" font-size="42">🐱</text>
  <rect x="400" y="80" width="80" height="80" rx="16" fill="#E8F7FF" stroke="#5BA4CF" stroke-width="2"/>
  <text x="440" y="132" text-anchor="middle" font-size="42">🐶</text>
  <rect x="310" y="170" width="80" height="80" rx="16" fill="#F5EBFF" stroke="#A07BD5" stroke-width="2"/>
  <text x="350" y="222" text-anchor="middle" font-size="42">🐶</text>
  <rect x="400" y="170" width="80" height="80" rx="16" fill="#FFE6E6" stroke="#CF5B5B" stroke-width="2"/>
  <text x="440" y="222" text-anchor="middle" font-size="42">🐱</text>
  <text x="520" y="122" text-anchor="middle" font-size="48">🧠</text>
  <defs>
    <linearGradient id="bg" x1="44" y1="28" x2="593" y2="329" gradientUnits="userSpaceOnUse">
      <stop stop-color="#FFF8E1"/>
      <stop offset="0.5" stop-color="#EEF9FF"/>
      <stop offset="1" stop-color="#F5EEFF"/>
    </linearGradient>
  </defs>
</svg>
