<svg width="640" height="360" viewBox="0 0 640 360" fill="none" xmlns="http://www.w3.org/2000/svg">
  <rect width="640" height="360" rx="32" fill="url(#bg)"/>
  <rect x="48" y="52" width="544" height="256" rx="30" fill="#FFFFFF" fill-opacity="0.92"/>
  <circle cx="132" cy="120" r="52" fill="#FFE6A7"/>
  <circle cx="526" cy="260" r="64" fill="#E2F6FF"/>
  <text x="128" y="133" text-anchor="middle" font-size="52" font-family="Arial, sans-serif">🐝</text>
  <text x="214" y="116" fill="#19334A" font-size="25" font-family="Arial, sans-serif" font-weight="700">SPELLING BEE</text>
  <text x="214" y="162" fill="#19334A" font-size="44" font-family="Arial, sans-serif" font-weight="800">Junior</text>
  <rect x="214" y="186" width="154" height="42" rx="18" fill="#19334A"/>
  <text x="291" y="213" text-anchor="middle" fill="#FFFFFF" font-size="18" font-family="Arial, sans-serif" font-weight="700">SPELLING GAME</text>
  <rect x="94" y="220" width="62" height="62" rx="18" fill="#FFF4CF"/>
  <text x="125" y="260" text-anchor="middle" fill="#19334A" font-size="30" font-family="Arial, sans-serif" font-weight="800">C</text>
  <rect x="168" y="220" width="62" height="62" rx="18" fill="#E8F7FF"/>
  <text x="199" y="260" text-anchor="middle" fill="#19334A" font-size="30" font-family="Arial, sans-serif" font-weight="800">A</text>
  <rect x="242" y="220" width="62" height="62" rx="18" fill="#F5EBFF"/>
  <text x="273" y="260" text-anchor="middle" fill="#19334A" font-size="30" font-family="Arial, sans-serif" font-weight="800">T</text>
  <rect x="420" y="112" width="118" height="52" rx="18" fill="#FFF4CF"/>
  <text x="479" y="145" text-anchor="middle" fill="#19334A" font-size="24" font-family="Arial, sans-serif" font-weight="700">🐱 cat</text>
  <rect x="420" y="178" width="118" height="52" rx="18" fill="#E8F7FF"/>
  <text x="479" y="211" text-anchor="middle" fill="#19334A" font-size="24" font-family="Arial, sans-serif" font-weight="700">📘 book</text>
  <defs>
    <linearGradient id="bg" x1="44" y1="28" x2="593" y2="329" gradientUnits="userSpaceOnUse">
      <stop stop-color="#FFF8E1"/>
      <stop offset="0.5" stop-color="#EEF9FF"/>
      <stop offset="1" stop-color="#F5EEFF"/>
    </linearGradient>
  </defs>
</svg>
